<?xml version="1.0" encoding="utf-8"?>
<!-- Generator: Adobe Illustrator 24.2.3, SVG Export Plug-In . SVG Version: 6.00 Build 0)  -->
<svg version="1.1" id="Layer_1" xmlns="http://www.w3.org/2000/svg" xmlns:xlink="http://www.w3.org/1999/xlink" x="0px" y="0px"
	 width="841.9px" height="595.3px" viewBox="0 0 841.9 595.3" enable-background="new 0 0 841.9 595.3" xml:space="preserve">
<g>
	<g>
		<path d="M285.9,358c-1.3,2-2.5,4-3.6,6.1C283.6,362.2,284.8,360.1,285.9,358z"/>
		<g>
			<path fill="#858585" d="M283.7,356.7c-1.3,2-2.5,4-3.6,6.1c-0.3,0.6-0.4,1.3-0.3,1.9c0.2,0.6,0.6,1.2,1.1,1.5
				c0.6,0.3,1.3,0.5,1.9,0.3c0.6-0.2,1.1-0.6,1.5-1.1c1.4-1.9,2.6-4,3.6-6.1c0.3-0.6,0.4-1.2,0.3-1.9c-0.2-0.6-0.6-1.2-1.1-1.5
				c-0.6-0.3-1.3-0.5-1.9-0.3C284.6,355.7,284,356.1,283.7,356.7c-1,2.1-2.2,4.2-3.6,6.1c1.4,0.8,2.9,1.7,4.3,2.5
				c1.1-2.1,2.3-4.1,3.6-6.1c0.7-1.1,0.3-2.8-0.9-3.4C285.9,355.1,284.4,355.5,283.7,356.7z"/>
		</g>
	</g>
	<g>
		<path d="M228.1,341.5c-1.3,0.3-2.5,0.5-3.8,0.8C225.5,342.1,226.8,341.8,228.1,341.5z"/>
		<g>
			<path fill="#858585" d="M227.4,339.1c-1.3,0.3-2.5,0.5-3.8,0.8c-0.3,0.1-0.6,0.2-0.9,0.4c-0.3,0.2-0.5,0.4-0.6,0.7
				c-0.3,0.5-0.4,1.3-0.3,1.9c0.2,0.6,0.6,1.2,1.1,1.5c0.2,0.1,0.4,0.2,0.6,0.3c0.4,0.1,0.9,0.1,1.3,0c1.3-0.2,2.6-0.5,3.8-0.8
				c0.6-0.1,1.2-0.6,1.5-1.1c0.3-0.5,0.4-1.3,0.3-1.9c-0.2-0.6-0.6-1.2-1.1-1.5C228.7,339.1,228.1,339,227.4,339.1
				c-1.3,0.3-2.5,0.5-3.8,0.8c0.4,1.6,0.9,3.2,1.3,4.8c1.3-0.3,2.5-0.5,3.8-0.8c0.3-0.1,0.6-0.2,0.9-0.4c0.3-0.2,0.5-0.4,0.6-0.7
				c0.3-0.5,0.4-1.3,0.3-1.9c-0.2-0.6-0.6-1.2-1.1-1.5c-0.2-0.1-0.4-0.2-0.6-0.3C228.3,339,227.9,339,227.4,339.1z"/>
		</g>
	</g>
	<g>
		<path d="M226.2,150.7c-0.6-1.1-1.1-2.2-1.7-3.2C224.8,148.6,225.4,149.7,226.2,150.7z"/>
		<g>
			<path fill="#858585" d="M228.3,149.4c-0.6-1.1-1.1-2.2-1.7-3.2c-0.2-0.3-0.4-0.5-0.6-0.7c-0.2-0.2-0.5-0.4-0.9-0.4
				c-0.2,0-0.4-0.1-0.7-0.1c-0.3,0-0.7,0.1-1,0.2c-0.2,0.1-0.4,0.2-0.6,0.3c-0.3,0.2-0.5,0.4-0.6,0.7c-0.3,0.6-0.5,1.3-0.3,1.9
				c0.4,1.4,1.1,2.7,2,3.8c0.2,0.3,0.4,0.5,0.6,0.7c0.2,0.2,0.5,0.4,0.9,0.4c0.3,0.1,0.7,0.1,1,0c0.3,0,0.6-0.1,0.9-0.3
				c0.5-0.3,1-0.9,1.1-1.5c0-0.2,0.1-0.4,0.1-0.7C228.7,150.2,228.5,149.8,228.3,149.4c-0.6-0.7-1-1.5-1.4-2.4
				c0.1,0.2,0.2,0.4,0.3,0.6c-0.1-0.3-0.2-0.6-0.3-0.9c-1.5,0.6-3,1.3-4.6,1.9c0.6,1.1,1.2,2.2,1.7,3.2c0.2,0.3,0.4,0.5,0.6,0.7
				c0.2,0.2,0.5,0.4,0.9,0.4c0.3,0.1,0.7,0.1,1,0c0.3,0,0.6-0.1,0.9-0.3c0.5-0.3,1-0.9,1.1-1.5c0-0.2,0.1-0.4,0.1-0.7
				C228.7,150.2,228.5,149.8,228.3,149.4z"/>
		</g>
	</g>
	<g>
		<path d="M166.5,294.7c-1.7-2.4-3-5-3.6-7.8C162.4,289.8,164,292.7,166.5,294.7z"/>
		<g>
			<path fill="#858585" d="M168.7,293.4c-1-1.4-1.8-2.8-2.5-4.3c0.1,0.2,0.2,0.4,0.3,0.6c-0.5-1.1-0.8-2.3-1.1-3.4
				c-0.2-1-1.4-1.9-2.4-1.8c-0.4,0-0.9,0.1-1.3,0.3c-0.5,0.3-1.1,0.9-1.1,1.5c-0.2,1.2-0.2,2.2,0,3.4c0.1,0.9,0.5,1.8,0.9,2.7
				c0.7,1.6,2,3.1,3.4,4.2c0.5,0.4,1.1,0.7,1.8,0.7c0.6,0,1.3-0.3,1.8-0.7c0.4-0.5,0.8-1.1,0.7-1.8c0-0.6-0.2-1.4-0.7-1.8
				c-0.7-0.6-1.3-1.2-1.9-1.9c0.1,0.2,0.3,0.3,0.4,0.5c-0.5-0.6-0.9-1.3-1.2-2c0.1,0.2,0.2,0.4,0.3,0.6c-0.3-0.6-0.4-1.3-0.5-1.9
				c0,0.2,0.1,0.4,0.1,0.7c-0.1-0.6-0.1-1.2,0-1.7c0,0.2-0.1,0.4-0.1,0.7c0-0.1,0-0.2,0-0.2c-1.6,0-3.2,0-4.8,0c0.6,3,2,5.9,3.8,8.4
				c0.4,0.5,0.8,1,1.5,1.1c0.6,0.2,1.4,0.1,1.9-0.3c0.5-0.3,1-0.9,1.1-1.5C169.1,294.7,169.1,294,168.7,293.4z"/>
		</g>
	</g>
	<g>
		<path d="M603,241c3.3-3.3,6.6-6.6,9.9-9.9C609.3,234.2,606,237.5,603,241z"/>
		<g>
			<path fill="#858585" d="M604.7,242.8c3.3-3.3,6.6-6.6,9.9-9.9c0.9-0.9,1-2.6,0-3.5c-1.1-1-2.5-0.9-3.5,0
				c-3.5,3.1-6.8,6.4-9.9,9.9c-0.9,1-1,2.6,0,3.5C602.1,243.6,603.8,243.8,604.7,242.8c3.1-3.5,6.4-6.8,9.9-9.9
				c-1.2-1.2-2.4-2.4-3.5-3.5c-3.3,3.3-6.6,6.6-9.9,9.9c-0.9,0.9-1,2.6,0,3.5C602.2,243.7,603.7,243.8,604.7,242.8z"/>
		</g>
	</g>
	<g>
		<path d="M255.2,284c-2.9,7.9-19.5,0.9-27.8,5c-8.9,4.4-15.3,12.2-24.7,16c-12.7,5-28.9-0.2-36.2-10.2c0.9,0.7,1.8,1.3,2.9,1.7
			c4.1,1.7,8.9,1.7,13.3,0.8c7.6-1.4,14.9-5.2,18.9-11.1c3.9-5.9,3.9-13.8-1-19.1c-6.3-6.8-18-7.4-26.2-12.5
			c-12-7.4-13.7-23.3-6.4-34.4c7.3-11.1,21.3-17.7,35.6-20.8c-6.9,4.1-14,8.3-19.1,14.1c-5.1,5.8-8,13.5-5.6,20.5
			c3.1,8.6,13.7,13.9,24.1,14.7c5.5,0.4,11-0.2,16.4-1.2c-0.5-0.7-1-1.5-1.5-2.3c-5.1-9.4-1.5-20.6,3.7-29.9
			c5.2-9.4,12.1-18.3,13.9-28.6c2.2-12.3-3.3-24.4-9.3-35.9c4.8,6.4,16.5,8.2,24.7,4.5c9.4-4.3,14.5-13.6,16.7-22.6
			c2.3-9,2.4-18.4,5.2-27.4c6.4-20.6,26.9-36.5,50.2-43.2c-12.5,6.4-23.5,15-32.2,25.1c-6.6,7.7-12,17.1-10,26.5
			c0.6,2.7,1.9,5.5,4.1,7.5c5.1,4.5,14,4.3,20.3,1.1c6.3-3.2,10.7-8.5,14.8-13.7c-0.3,9.9-6.6,18.9-14.1,26.3
			c-7.4,7.5-16.1,14-22.8,22c-9.9,12-14.6,27.1-13,41.8c0.4,4,1.4,8.2,3.6,11.7c1.6-3.7,3.6-7.3,6-10.8c3.4-4.8,7.4-9.4,12.1-13.4
			l-0.5-0.2c-1.2-11.4,6.9-22.3,17-29.7c10.1-7.4,22.3-12.4,33.3-18.7c18.5-10.6,34-25.3,44.5-42.2c6.7,13-4.9,27.3-6,41.4
			c-0.1,1.8,0,3.8,1.3,5.2c1.1,1.2,3,1.8,4.7,2c10.3,1.6,20.4-4,27.5-10.7c7.2-6.6,12.9-14.6,21.4-19.9
			c-5.4,17.6-22.5,30.3-34.5,45.3c-4.8,6-8.8,12.8-11.6,19.9c0.4,0.3,0.9,0.5,1.3,0.8c7.9,4.8,14.3,10.9,19.8,17.7
			c0.4-0.2,0.8-0.2,0.9-0.4c3.6-5.3,8.8-9.4,13.9-13.4c9-7.1,20.4-10.3,29.8-16.6c11.2-7.5,21.7-15.2,35.5-18.8
			c12.2-3.1,25.1-2.7,37.7-4.3c17.2-2.2,33.7-8.4,47.3-17.7c2.6,7.5-1.3,15.8-7.6,21.5c-6.3,5.6-14.7,9.2-22.9,12.5
			c-3.2,1.3-6.9,4.9-4.1,6.8c0.7,0.4,1.5,0.6,2.3,0.7c13.3,1.8,27.2-0.2,39-5.7c28.3-13.1,40.1-42.2,58.6-64.9
			c6.5,15.4,1.4,33.2-9.4,46.6c-10.8,13.5-26.6,23.3-42.9,31.7c-13.2,6.8-28.7,15.3-29,28.6c0,1.8,0.3,3.8,1.9,4.9
			c1.2,0.9,2.9,1.1,4.5,1.1c10.3,0.3,20.5-4.7,25.5-12.4c-0.7,21.6-15.4,41-32.8,56.5c-4.1,3.6-8.3,7-12.6,10.4
			c-1.2,2.6-2.5,5.1-3.8,7.6c1.2,0.9,2.6,1.7,4,2.3c7.1,2.9,15.8,1.5,22.6-1.9c6.8-3.5,12.1-8.7,17.2-13.9
			c5.7-5.6,11.3-11.3,17-16.9c-2.7,3.1-5.2,6.3-7.5,9.6c-1.4,2-2.7,4.2-2.6,6.5c0.1,4.7,6,8,11.4,8c5.4,0,10.5-2.3,15.4-4.2
			c15-6,31.2-9.7,47.7-10.8c-13.1,4.5-25.6,10.5-37.2,17.6c-8.1,5-16.5,12.9-13.4,21c13.2-3.7,25.2-10,37-16.2
			c-15.9,18.4-43,28.9-69.4,27.1c-16.5-1.2-32.1-6.8-48.5-9c-2.3-0.3-4.7-0.5-7.2-0.7c-8.4,9.2-17.9,17.5-27.6,25.5
			c-2.5,2.1-5.1,4.2-7.7,6.2c1.2,4.5,3.6,8.8,8,11.3c8.2,4.9,19.4,1.7,28.6-1.6c10-3.6,20-7.2,30-10.8
			c-13.9,6.6-28.1,13.4-38.9,23.6c-8.8,8.2-15,19.2-15.1,30.2c-1.8-2.1-4.6-3.8-7.6-4.1c-6.3-0.6-12.1,2.5-17,6
			c-8,5.8-14.8,12.9-19.9,20.8c0-0.2,0.1-0.5,0.1-0.7c0.6-7.8,0-23.5-7.1-28.4c-5.3-3.7-12.2-7.1-21.6,4.4
			c-4.9,5.2-9.5,10.6-14.3,15.9c-2.8,3.2-5.1,6.8-7.6,10.2c-0.4,0-0.8,0-1.1,0c-3.2-4.1-6.3-8.3-9.7-12.2c-4.8-5.4-9.6-10.9-14.8-16
			c-5.9-5.8-12.1-11.3-18.4-16.7c-3.7-3.2-7.8-6.1-11.7-9.1c-2-1.5-3.9-3-5.9-4.4c-2.1,1.3-4.1,2.9-5.6,4.6
			c-7.2,7.9-10.1,18-16.5,26.3c4.1-7.7,8.4-15.9,7.4-24.4c-1-8.5-9.4-16.9-19.2-15.7c-5.7,0.7-10.3,4.4-14.1,8.1
			c-5.9,5.8-11.1,12.1-15.3,18.9c2.9-6.2,3.9-13-0.6-18.1c-6.5-7.2-18.6-5-27.7-0.5c-14,6.9-20.2,0.4-29.4,2.2
			c20.5-4.6,37.9-17.9,47.2-34.4l-15.2-23c4.4,0.3,8.8,1.1,12.3,3.3c3.8,2.3,6.1,5.6,7.5,9.4c1.9-5.6,2.8-11.3,2.8-17.1
			c-3.8-5.6-6.9-11.5-8.9-17.8c-0.8-2.5-1.4-5-1.9-7.5c-3.7,0.6-7.5,1.8-11.2,2.8c-5.5,1.5-11.6,2-17.5,1.5
			C243.3,258.6,261.5,266.9,255.2,284z"/>
		<g>
			<path fill="#858585" d="M252.8,283.3c-1.4,3.5-9.4,2.1-12.2,1.9c-5.7-0.3-11.1-0.4-16.3,2.5c-6.4,3.6-11.6,8.8-17.9,12.5
				c-5.9,3.5-12.6,4.9-19.4,3.7c-7-1.2-14-4.7-18.4-10.5c-1.1,1.1-2.3,2.3-3.4,3.4c9.8,7.3,25.9,2.5,34.3-4.8
				c8.6-7.5,10.1-21.1,0.7-28.6c-8.6-6.9-21.3-6.3-28.9-14.5c-6.9-7.5-6.7-19.3-1.3-27.5c7.4-11.3,21.4-16.8,34.1-19.7
				c-0.6-1.5-1.3-3-1.9-4.6c-7.6,4.5-15.6,9.1-21.1,16.2c-4.9,6.3-7.5,14.7-4.3,22.3c2.8,6.7,9.3,10.9,15.9,13.2
				c8.8,3.1,18.2,2.5,27.3,0.8c1.5-0.3,2.4-2.4,1.5-3.7c-11-15.7,5.4-33.3,12.2-47c3.7-7.6,5.5-15.5,4.3-23.9
				c-1.3-9.1-5.4-17.6-9.7-25.7c-1.3,1-2.6,2-3.9,3c5.7,7.1,17,8.7,25.2,5.9c9.3-3.2,15.6-11.4,18.9-20.4
				c4.1-11.2,3.3-23.5,7.5-34.7c3.3-8.9,9.5-16.5,16.6-22.6c8.9-7.6,19.7-13,30.9-16.3c-0.6-1.5-1.3-3-1.9-4.6
				c-8,4.1-15.5,9.1-22.3,15c-6.6,5.7-12.9,12.2-17.2,19.8c-4.1,7.1-6.3,16.1-2.4,23.9c3.7,7.4,12.2,9.4,19.7,8.1
				c9.7-1.7,16.3-9.1,22.1-16.4c-1.4-0.6-2.8-1.2-4.3-1.8c-0.8,16.5-16.7,27.5-27.6,37.8c-11.5,10.7-19.9,23.7-22,39.5
				c-1.1,8.6-0.7,18.2,3.8,25.8c0.9,1.5,3.5,1.8,4.3,0c4-9.2,10.2-17.2,17.8-23.7c1.5-1.3,0.6-3.6-1.1-4.2c-0.2-0.1-0.4-0.1-0.5-0.2
				c0.6,0.8,1.2,1.6,1.8,2.4c-1.6-18.5,18-30,32-37.3c8.2-4.2,16.5-8.2,24.2-13.3c7.3-4.8,14.2-10.3,20.4-16.4
				c6.8-6.7,12.8-14.2,17.8-22.3c-1.4,0-2.9,0-4.3,0c3.4,6.9,1,14.5-1.3,21.3c-2.3,6.6-6,14.4-4.9,21.6c1.2,8.2,12,7.9,18.2,6.6
				c7.7-1.7,14.5-6.2,20.2-11.6c6.7-6.4,12.4-13.9,20.3-19c-1.2-0.9-2.4-1.9-3.7-2.8c-3.9,12.5-13.5,22-22.2,31.3
				c-9.7,10.2-18.6,20.6-23.8,33.9c-0.4,1,0.3,2.3,1.1,2.8c8,4.6,14.8,10.9,20.6,18c0.5,0.6,1.7,0.9,2.4,0.6
				c2.5-0.8,3.4-3.1,5.1-4.9c2.1-2.3,4.4-4.4,6.8-6.3c4.7-3.8,9.5-7,14.9-9.7c5.2-2.6,10.6-4.9,15.6-7.9c5-3,9.7-6.5,14.6-9.6
				c10.4-6.6,21.3-11.1,33.6-12.6c12.9-1.5,25.8-1.5,38.5-4.4c13.1-3.1,25.6-8.4,36.7-15.9c-1.2-0.5-2.4-1-3.7-1.5
				c4.6,14.4-12.3,23.8-23,28.5c-4.2,1.8-13.3,4.2-12.6,10.4c0.4,3.2,3.5,4.1,6.2,4.5c3.7,0.5,7.4,0.7,11.1,0.6
				c14-0.4,27.8-4.8,39.3-12.8c9.8-6.9,17.7-16,24.7-25.6c8.1-11.1,15.1-22.9,23.7-33.5c-1.4-0.4-2.8-0.7-4.2-1.1
				c5.1,12.4,2.6,26-4,37.3c-6.9,11.8-17.9,20.7-29.2,28c-10.9,7-23.2,11.9-33.8,19.4c-4.4,3.1-8.6,6.7-11.3,11.4
				c-2.5,4.2-4.6,10.8-1.7,15.3c3.6,5.6,14,3.4,19.1,1.7c6.6-2.2,12.3-6.2,16.2-11.9c-1.6-0.4-3.1-0.8-4.7-1.3
				c-0.6,14.4-7.5,27.6-16.5,38.6c-4.7,5.8-10,11.1-15.6,16.1c-3.1,2.8-6.3,5.4-9.6,8c-1.9,1.5-3.2,2.4-4.2,4.6c-1,2-2,3.9-3,5.9
				c-0.7,1.3-0.2,2.6,0.9,3.4c10.2,7.2,23.9,4.3,33.6-2.3c5.2-3.5,9.6-7.9,14-12.3c5.4-5.4,10.8-10.8,16.2-16.2
				c-1.2-1.2-2.4-2.4-3.5-3.5c-3.1,3.6-6.3,7.4-8.8,11.5c-1.9,3.1-2.9,6.6-1.2,10c3.6,7.3,13.5,7.8,20.3,5.9
				c4.5-1.2,8.7-3.3,13.1-4.9c4.5-1.6,9-3.1,13.6-4.3c9.5-2.5,19.3-4.1,29.1-4.8c-0.2-1.6-0.4-3.3-0.7-4.9
				c-12.5,4.3-24.5,9.9-35.8,16.7c-8.3,5-20.3,13.7-16.5,25c0.4,1.3,1.7,2.1,3.1,1.7c13.2-3.8,25.5-10.1,37.6-16.4
				c-1-1.3-2-2.6-3-3.9c-14.2,16.3-35.8,25.4-57.2,26.5c-12.3,0.6-24.3-1.9-36.3-4.6c-6.4-1.5-12.7-3-19.2-4c-2.8-0.4-5.5-0.8-8.3-1
				c-1.3-0.1-2.6-0.4-3.8,0.4c-1.3,0.9-2.3,2.4-3.4,3.5c-9.9,10.3-21,19.6-32.2,28.4c-0.7,0.5-0.9,1.7-0.6,2.4
				c1.6,5.6,4.8,10.7,10.1,13.4c5.5,2.8,11.7,2.6,17.7,1.5c6.7-1.3,13-3.9,19.3-6.1c7.5-2.7,15-5.4,22.5-8.1c-0.6-1.5-1.3-3-1.9-4.6
				c-23,11-54.6,26.2-55.2,56c1.4-0.6,2.8-1.2,4.3-1.8c-7.3-8.2-18.9-4.5-26.7,0.9c-8.7,5.9-16.1,13.6-21.8,22.4
				c1.6,0.4,3.1,0.8,4.7,1.3c0.7-5.5,0.3-11.3-0.7-16.7c-0.9-5.2-2.8-11-7.2-14.3c-3.5-2.6-7.7-4.6-12.1-4
				c-7.1,0.9-11.7,7.2-16.2,12.1c-3.5,3.8-6.9,7.7-10.3,11.6c-3.2,3.6-5.8,7.5-8.6,11.4c0.7-0.4,1.4-0.8,2.2-1.2c-0.4,0-0.8,0-1.1,0
				c0.6,0.2,1.2,0.5,1.8,0.7c-8.8-11.2-17.9-22-28.3-31.8c-10.4-9.7-21.3-18.5-32.7-27c-0.7-0.5-1.8-0.4-2.5,0
				c-11.7,7.4-15,21.3-23.1,31.8c1.4,0.8,2.9,1.7,4.3,2.5c4.3-8,9-16.9,7.7-26.3c-1-7.3-6.3-13.7-13.1-16.4
				c-8-3.2-15.9,0.2-22.1,5.6c-7,6.1-13,13.7-18,21.5c1.4,0.8,2.9,1.7,4.3,2.5c3.2-7.1,4.5-15.6-1.5-21.6
				c-5.1-5.1-12.7-5.6-19.4-4.2c-7.7,1.5-14.3,6.7-22.3,6.7c-5.9,0-11.5-2-17.4-0.9c0.4,1.6,0.9,3.2,1.3,4.8
				c20.2-4.7,38.4-17.5,48.7-35.6c0.4-0.7,0.5-1.8,0-2.5c-5.1-7.7-10.1-15.3-15.2-23c-0.7,1.3-1.4,2.5-2.2,3.8
				c7.6,0.6,14.6,3.2,17.4,10.8c0.8,2.3,4,2.4,4.8,0c1.2-3.7,2.1-7.5,2.5-11.4c0.2-1.9,0.4-4,0.3-5.9c-0.1-1.8-1.3-3.2-2.3-4.7
				c-4.2-6.8-6.9-14-8.6-21.8c-0.3-1.4-1.8-2-3.1-1.7c-4.6,0.8-8.9,2.4-13.4,3.3c-4.8,1-9.7,1.2-14.6,0.9c-2.4-0.2-3.5,3.6-1.3,4.7
				c2.8,1.3,5.3,3.2,7.4,5.4C253.9,271,255,277.1,252.8,283.3c-1.1,3,3.8,4.4,4.8,1.3c2.6-7.4,1.2-15-3.8-21
				c-2.5-2.9-5.8-5.6-9.3-7.2c-0.4,1.6-0.8,3.1-1.3,4.7c5,0.4,10.1,0.1,15-0.9c4.8-0.9,9.4-2.7,14.3-3.5c-1-0.6-2.1-1.2-3.1-1.7
				c1.6,7.2,3.9,14,7.6,20.4c0.8,1.5,2,2.9,2.7,4.5c0.7,1.4,0.3,3.3,0.2,4.9c-0.4,3.9-1.3,7.7-2.5,11.4c1.6,0,3.2,0,4.8,0
				c-1.5-4.2-4-7.7-7.6-10.2c-4.3-3-9.5-3.9-14.6-4.3c-1.9-0.1-3.2,2.2-2.2,3.8c5.1,7.7,10.1,15.3,15.2,23c0-0.8,0-1.7,0-2.5
				c-9.7,17-26.7,28.9-45.7,33.3c-3.2,0.7-1.8,5.4,1.3,4.8c5-0.9,9.9,0.9,14.9,1.1c2.9,0.1,5.9-0.3,8.8-1.1c3.4-1,6.5-2.7,9.8-4
				c5.4-2,12.2-3.6,17.7-1.1c7.3,3.4,6.7,11.5,3.8,17.8c-1.3,2.9,2.6,5.3,4.3,2.5c4.3-6.7,9.3-12.8,15-18.4
				c4.9-4.7,11.1-9.1,18.2-6.9c5.8,1.8,10.4,7.5,11,13.6c0.7,8-3.5,15.5-7.1,22.3c-1.6,2.9,2.4,5,4.3,2.5c7.4-9.7,10.5-23.2,21.3-30
				c-0.8,0-1.7,0-2.5,0c11.1,8.2,21.7,16.8,31.7,26.2c10,9.3,18.8,19.6,27.2,30.3c0.9,1.1,1.4,2,2.9,2.2c1,0.1,2.1,0,2.9-0.7
				c1-0.9,1.7-2.4,2.5-3.4c1.1-1.6,2.2-3.1,3.4-4.6c4.3-5.5,9.3-10.7,14-15.9c3.3-3.6,6.8-8.7,12.1-9.3c3-0.3,6.1,1.3,8.5,3.1
				c3.6,2.8,4.7,8,5.4,12.3c0.8,4.8,1,9.9,0.4,14.7c-0.3,2.7,3.4,3.1,4.7,1.3c4.8-7.3,10.9-13.8,18-19.1c6.1-4.6,16.2-10.3,22.7-3.1
				c1.5,1.7,4.2,0.3,4.3-1.8c0.2-12.9,8.5-23.9,18.1-31.8c10.3-8.5,22.7-14.2,34.6-19.9c2.5-1.2,0.7-5.5-1.9-4.6
				c-6.4,2.3-12.8,4.6-19.2,6.9c-5.9,2.1-11.8,4.5-17.8,6.2c-5.1,1.4-10.8,2.6-16.1,1.1c-5.6-1.5-8.9-6-10.4-11.4
				c-0.2,0.8-0.4,1.6-0.6,2.4c12.4-9.8,24.6-20.1,35.3-31.7c-0.6,0.2-1.2,0.5-1.8,0.7c19.5,1.2,38.1,8.9,57.7,9.8
				c16.6,0.8,33.5-3.2,48.1-11.2c7.9-4.3,15.1-10,21-16.7c1.9-2.1-0.5-5.3-3-3.9c-11.8,6.2-23.6,12.3-36.4,15.9
				c1,0.6,2.1,1.2,3.1,1.7c-3.3-9.9,10.5-17.3,17.3-21.2c10-5.8,20.6-10.5,31.5-14.3c2.5-0.9,2.3-5.1-0.7-4.9
				c-16.4,1.2-32.6,4.6-47.9,10.7c-6.4,2.5-14.7,6.8-21.3,2.6c-3.2-2-3.2-4.6-1.4-7.7c2.3-3.7,5.1-7.2,8-10.5
				c2.1-2.4-1.2-5.8-3.5-3.5c-4.7,4.7-9.4,9.4-14.1,14.1c-4.2,4.2-8.3,8.6-13,12.1c-8.6,6.6-21.1,10.6-30.7,3.8
				c0.3,1.1,0.6,2.3,0.9,3.4c1.1-1.9,2-4,3-5.9c1.2-2.1,3.1-3.3,4.9-4.8c3.4-2.7,6.7-5.5,9.9-8.5c5.7-5.2,11-10.7,15.7-16.8
				c8.9-11.5,15.5-25,16.1-39.7c0.1-2.6-3.3-3.2-4.7-1.3c-3.3,4.8-8.4,8.2-14,9.9c-2.8,0.9-5.7,1.3-8.6,1.3c-1.2,0-3.2,0.1-4.1-0.9
				c-1-1.1-0.7-3.2-0.5-4.5c1.7-10.3,12.9-16.6,21.1-21.2c21.4-11.8,45.2-23.4,57-46.3c6.1-11.8,8.1-25.8,3-38.3
				c-0.6-1.5-2.9-2.7-4.2-1.1c-14.2,17.5-24.3,38.6-41.4,53.6c-9.6,8.4-21.1,14-33.7,16c-3.3,0.5-6.7,0.8-10,0.9
				c-1.8,0-3.6,0-5.4-0.1c-0.6,0-6.2-0.4-6.2-0.4c-0.2-0.5,1.7-1.8,2-2c1.3-0.9,2.9-1.4,4.4-2c3.1-1.3,6.2-2.6,9.2-4.1
				c11.4-5.8,24.4-17.3,19.8-31.6c-0.5-1.4-2.3-2.4-3.7-1.5c-10.1,6.8-21.2,11.8-33,14.8c-12.4,3.2-25.1,3.3-37.8,4.7
				c-12.4,1.3-23.7,4.9-34.5,11.3c-4.8,2.8-9.3,6-13.9,9.1c-4.9,3.3-10,5.9-15.3,8.4c-5.7,2.7-11.4,5.6-16.4,9.5
				c-2.7,2.1-5.4,4.2-7.9,6.5c-1.2,1.1-2.4,2.3-3.5,3.6c-0.4,0.4-0.7,0.8-1.1,1.3c-0.2,0.3-1.4,1.8-1.3,1.7c0.8,0.2,1.6,0.4,2.4,0.6
				c-6.1-7.4-13.3-14-21.7-18.8c0.4,0.9,0.8,1.9,1.1,2.8c5.3-13.5,14.9-23.7,24.7-34c8.7-9.2,17.5-18.9,21.3-31.1
				c0.6-2-1.9-4-3.7-2.8c-12.5,8.1-20,22.5-34.1,28.4c-3.4,1.4-7,2.2-10.7,2.1c-1.6,0-3.9-0.1-5.3-1.1c-1.5-1-1.3-3-1.1-4.7
				c0.7-7,3.8-13.5,5.9-20.1c2.3-7.3,3.2-14.8-0.3-21.8c-0.9-1.8-3.4-1.5-4.3,0c-9.4,15.1-22.2,27.8-37.1,37.4
				c-15.6,10.1-34.7,15.7-47.6,29.5c-6.4,6.7-11.2,15.5-10.3,25c0.1,1.2,0.7,2.1,1.8,2.4c0.2,0.1,0.4,0.1,0.5,0.2
				c-0.4-1.4-0.7-2.8-1.1-4.2c-7.8,6.8-14.4,15.2-18.5,24.7c1.4,0,2.9,0,4.3,0c-4-6.7-4.2-15.4-3.2-22.9c1-7.4,3.6-14.5,7.4-20.8
				c8.3-13.8,22.6-22.1,32.6-34.4c5.2-6.5,9.2-13.9,9.6-22.4c0.1-2-2.9-3.5-4.3-1.8c-4.4,5.5-9.2,11.6-16,14.1
				c-6,2.2-14.5,2-17.8-4.4c-3.6-6.8-0.4-15,3.4-21c4-6.3,9.4-11.8,15-16.6c6.6-5.7,13.8-10.5,21.6-14.5c2.5-1.3,0.8-5.4-1.9-4.6
				c-18.3,5.3-35.9,16.1-46.2,32.5c-5.8,9.2-7.5,19.2-9.1,29.8c-1.5,10-3.7,20.5-11.7,27.4c-7.3,6.4-20.8,7.9-27.4-0.4
				c-1.8-2.3-5.2,0.6-3.9,3c4.3,8.3,8.7,17.1,9.4,26.5c0.6,8.8-2.8,16.6-7.2,24c-7.9,13.5-19.7,30.8-9,46.1c0.5-1.2,1-2.4,1.5-3.7
				c-7.7,1.4-15.6,2-23.2-0.3c-5.6-1.7-11.7-5.2-14.1-10.8c-2.9-6.8,0.6-14.2,5.3-19.2c5.1-5.5,11.7-9.3,18.1-13.1
				c2.5-1.5,0.8-5.2-1.9-4.6c-19.7,4.4-44.9,17.8-41.4,41.8c1.6,10.7,9,17.6,18.8,21.2c9.1,3.4,24.1,6.4,21.4,19.5
				c-1.3,6.4-6.9,10.9-12.7,13.3c-6.4,2.7-15.2,4.2-21.1-0.3c-2-1.5-4.9,1.5-3.4,3.4c8.6,11.3,25.3,16.6,38.7,11.5
				c7.8-3,13.7-8.7,20.4-13.3c2.8-1.9,5.6-3.6,9-4c3.1-0.3,6.2,0,9.3,0.1c5.8,0.3,13.2,0.7,15.8-5.7
				C258.9,281.7,254,280.4,252.8,283.3z"/>
		</g>
	</g>
</g>
<g>
	<g>
		<path d="M398.3,451.2c-0.9,1.5-1.8,2.9-2.6,4.4C396.7,454.3,397.6,452.8,398.3,451.2z"/>
		<g>
			<path fill="#FFFFFF" d="M396.2,449.9c-0.9,1.5-1.8,2.9-2.6,4.4c-0.3,0.6-0.4,1.3-0.3,1.9c0.2,0.6,0.6,1.2,1.1,1.5
				c0.6,0.3,1.3,0.5,1.9,0.3c0.2-0.1,0.4-0.2,0.6-0.3c0.4-0.2,0.7-0.5,0.9-0.9c1-1.4,1.9-2.9,2.6-4.4c0.2-0.3,0.3-0.6,0.3-0.9
				c0.1-0.3,0.1-0.7,0-1c-0.2-0.6-0.6-1.2-1.1-1.5c-0.6-0.3-1.3-0.5-1.9-0.3C397.1,449,396.5,449.4,396.2,449.9
				c-0.7,1.6-1.6,3-2.6,4.4c1.4,0.8,2.9,1.7,4.3,2.5c0.8-1.5,1.7-3,2.6-4.4c0.3-0.5,0.4-1.3,0.3-1.9c-0.2-0.6-0.6-1.2-1.1-1.5
				c-0.6-0.3-1.3-0.5-1.9-0.3C397,449,396.5,449.4,396.2,449.9z"/>
		</g>
	</g>
	<g>
		<path d="M356.2,439.2c-0.9,0.2-1.9,0.4-2.8,0.6C354.3,439.6,355.2,439.4,356.2,439.2z"/>
		<g>
			<path fill="#FFFFFF" d="M355.5,436.8c-0.9,0.2-1.9,0.4-2.8,0.6c-0.3,0.1-0.6,0.2-0.9,0.4c-0.3,0.2-0.5,0.4-0.6,0.7
				c-0.2,0.3-0.3,0.6-0.3,0.9c-0.1,0.3-0.1,0.7,0,1c0.2,0.6,0.6,1.2,1.1,1.5c0.2,0.1,0.4,0.2,0.6,0.3c0.4,0.1,0.9,0.1,1.3,0
				c0.9-0.2,1.9-0.3,2.8-0.6c0.3-0.1,0.6-0.2,0.9-0.4c0.3-0.2,0.5-0.4,0.6-0.7c0.2-0.3,0.3-0.6,0.3-0.9c0.1-0.3,0.1-0.7,0-1
				c-0.2-0.6-0.6-1.2-1.1-1.5c-0.2-0.1-0.4-0.2-0.6-0.3C356.4,436.7,355.9,436.7,355.5,436.8c-0.9,0.2-1.9,0.4-2.8,0.6
				c0.4,1.6,0.9,3.2,1.3,4.8c0.9-0.2,1.9-0.4,2.8-0.6c0.3-0.1,0.6-0.2,0.9-0.4c0.3-0.2,0.5-0.4,0.6-0.7c0.2-0.3,0.3-0.6,0.3-0.9
				c0.1-0.3,0.1-0.7,0-1c-0.2-0.6-0.6-1.2-1.1-1.5c-0.2-0.1-0.4-0.2-0.6-0.3C356.4,436.7,355.9,436.7,355.5,436.8z"/>
		</g>
	</g>
	<g>
		<path d="M354.7,299.8c-0.4-0.8-0.8-1.6-1.3-2.4C353.8,298.3,354.2,299.1,354.7,299.8z"/>
		<g>
			<path fill="#FFFFFF" d="M356.9,298.6c-0.4-0.8-0.8-1.6-1.3-2.4c-0.2-0.3-0.4-0.5-0.6-0.7c-0.2-0.2-0.5-0.4-0.9-0.4
				c-0.2,0-0.4-0.1-0.7-0.1c-0.3,0-0.7,0.1-1,0.2c-0.2,0.1-0.4,0.2-0.6,0.3c-0.3,0.2-0.5,0.4-0.6,0.7c-0.1,0.2-0.2,0.4-0.3,0.6
				c-0.1,0.4-0.1,0.9,0,1.3c0.1,0.3,0.2,0.6,0.4,0.9c0.1,0.3,0.3,0.6,0.4,0.9c0.2,0.4,0.5,0.8,0.7,1.1c0.2,0.3,0.4,0.5,0.6,0.7
				c0.2,0.2,0.5,0.4,0.9,0.4c0.3,0.1,0.7,0.1,1,0c0.3,0,0.6-0.1,0.9-0.3c0.2-0.1,0.3-0.3,0.5-0.4c0.3-0.3,0.5-0.7,0.6-1.1
				c0-0.2,0.1-0.4,0.1-0.7C357.2,299.4,357.1,299,356.9,298.6c-0.4-0.5-0.8-1.1-1-1.7c0.1,0.2,0.2,0.4,0.3,0.6
				c-0.1-0.2-0.2-0.4-0.2-0.6c-1.5,0.6-3,1.3-4.6,1.9c0.4,0.8,0.8,1.6,1.3,2.4c0.2,0.3,0.4,0.5,0.6,0.7c0.2,0.2,0.5,0.4,0.9,0.4
				c0.3,0.1,0.7,0.1,1,0c0.3,0,0.6-0.1,0.9-0.3c0.2-0.1,0.3-0.3,0.5-0.4c0.3-0.3,0.5-0.7,0.6-1.1c0-0.2,0.1-0.4,0.1-0.7
				C357.2,299.4,357.1,299,356.9,298.6z"/>
		</g>
	</g>
	<g>
		<path d="M311.2,405c-1.3-1.7-2.2-3.6-2.6-5.7C308.2,401.4,309.4,403.5,311.2,405z"/>
		<g>
			<path fill="#FFFFFF" d="M313.4,403.7c-0.7-1-1.3-2-1.8-3.2c0.1,0.2,0.2,0.4,0.3,0.6c-0.3-0.8-0.6-1.7-0.8-2.5
				c-0.1-0.2-0.2-0.4-0.3-0.6c-0.2-0.3-0.4-0.5-0.6-0.7c-0.4-0.3-1-0.6-1.5-0.5c-0.4,0-0.9,0.1-1.3,0.3c-0.5,0.3-1.1,0.9-1.1,1.5
				c-0.1,0.5-0.2,1-0.2,1.4c0,0.5,0.1,0.9,0.1,1.4c0.1,0.7,0.4,1.4,0.7,2.1c0.3,0.7,0.8,1.3,1.2,1.9c0.4,0.5,0.8,0.9,1.3,1.3
				c0.5,0.4,1.1,0.7,1.8,0.7c0.6,0,1.3-0.3,1.8-0.7c0.4-0.5,0.8-1.1,0.7-1.8c0-0.6-0.2-1.4-0.7-1.8c-0.5-0.4-1-0.9-1.4-1.4
				c0.1,0.2,0.3,0.3,0.4,0.5c-0.3-0.4-0.6-0.9-0.9-1.5c0.1,0.2,0.2,0.4,0.3,0.6c-0.2-0.5-0.3-0.9-0.4-1.4c0,0.2,0.1,0.4,0.1,0.7
				c-0.1-0.4-0.1-0.8,0-1.3c0,0.2-0.1,0.4-0.1,0.7c0-0.1,0-0.1,0-0.2c-1.6,0-3.2,0-4.8,0c0.5,2.3,1.5,4.4,2.9,6.3
				c0.4,0.5,0.8,1,1.5,1.1c0.6,0.2,1.4,0.1,1.9-0.3c0.5-0.3,1-0.9,1.1-1.5C313.8,405.1,313.7,404.3,313.4,403.7z"/>
		</g>
	</g>
	<g>
		<path d="M629.9,365.8c2.4-2.4,4.8-4.8,7.2-7.2C634.5,360.8,632.1,363.2,629.9,365.8z"/>
		<g>
			<path fill="#FFFFFF" d="M631.7,367.6c2.4-2.4,4.8-4.8,7.2-7.2c0.9-0.9,1-2.6,0-3.5c-1.1-1-2.5-0.9-3.5,0c-2.6,2.2-5,4.7-7.2,7.2
				c-0.4,0.5-0.7,1.1-0.7,1.8c0,0.6,0.3,1.3,0.7,1.8C629.1,368.4,630.7,368.6,631.7,367.6c2.3-2.6,4.7-5,7.2-7.2
				c-1.2-1.2-2.4-2.4-3.5-3.5c-2.4,2.4-4.8,4.8-7.2,7.2c-0.9,0.9-1,2.6,0,3.5C629.1,368.5,630.7,368.5,631.7,367.6z"/>
		</g>
	</g>
	<g>
		<path d="M376,397.2c-2.1,5.8-14.2,0.6-20.3,3.6c-6.5,3.2-11.2,8.9-18,11.7c-9.3,3.7-21.1-0.2-26.5-7.5c0.6,0.5,1.3,0.9,2.1,1.2
			c3,1.3,6.5,1.2,9.7,0.6c5.6-1,10.9-3.8,13.8-8.1c2.9-4.3,2.9-10.1-0.7-14c-4.6-5-13.2-5.4-19.2-9.1c-8.8-5.4-10-17-4.7-25.1
			c5.3-8.1,15.6-12.9,26-15.2c-5.1,3-10.2,6.1-14,10.3c-3.7,4.2-5.9,9.9-4.1,14.9c2.2,6.3,10,10.2,17.6,10.7c4,0.3,8-0.1,12-0.9
			c-0.4-0.5-0.7-1.1-1.1-1.7c-3.7-6.9-1.1-15,2.7-21.9c3.8-6.8,8.8-13.4,10.2-20.9c1.6-9-2.4-17.8-6.8-26.2c3.5,4.6,12.1,6,18,3.3
			c6.9-3.2,10.6-9.9,12.2-16.5c1.7-6.6,1.7-13.5,3.8-20c4.7-15,19.6-26.7,36.6-31.6c-9.1,4.7-17.2,10.9-23.5,18.3
			c-4.8,5.6-8.8,12.5-7.3,19.3c0.4,2,1.4,4,3,5.4c3.7,3.3,10.2,3.1,14.8,0.8c4.6-2.3,7.8-6.2,10.8-10c-0.2,7.2-4.8,13.8-10.3,19.2
			c-5.4,5.5-11.8,10.2-16.6,16.1c-7.2,8.8-10.6,19.8-9.5,30.5c0.3,2.9,1,6,2.7,8.5c1.2-2.7,2.6-5.3,4.4-7.9c2.5-3.5,5.4-6.9,8.8-9.8
			l-0.4-0.1c-0.8-8.3,5-16.2,12.4-21.7c7.4-5.4,16.3-9,24.3-13.6c13.5-7.7,24.8-18.4,32.5-30.8c4.9,9.5-3.6,19.9-4.4,30.3
			c-0.1,1.3,0,2.8,0.9,3.8c0.8,0.9,2.2,1.3,3.5,1.5c7.5,1.2,14.9-3,20.1-7.8c5.2-4.8,9.4-10.7,15.6-14.6
			c-3.9,12.9-16.4,22.2-25.2,33.1c-3.5,4.4-6.5,9.4-8.4,14.5c0.3,0.2,0.6,0.4,1,0.6c5.8,3.5,10.4,7.9,14.5,12.9
			c0.3-0.1,0.6-0.1,0.7-0.3c2.6-3.9,6.4-6.9,10.2-9.8c6.6-5.2,14.9-7.5,21.8-12.1c8.2-5.5,15.8-11.1,26-13.7
			c8.9-2.3,18.4-2,27.5-3.1c12.6-1.6,24.6-6.1,34.6-12.9c1.9,5.5-1,11.6-5.5,15.7c-4.6,4.1-10.7,6.7-16.7,9.1c-2.3,1-5,3.6-3,4.9
			c0.5,0.3,1.1,0.4,1.7,0.5c9.7,1.3,19.8-0.2,28.5-4.2c20.7-9.6,29.3-30.8,42.8-47.4c4.8,11.2,1,24.2-6.9,34
			c-7.9,9.8-19.5,17-31.3,23.1c-9.6,5-20.9,11.2-21.2,20.9c0,1.3,0.2,2.8,1.4,3.6c0.9,0.7,2.1,0.8,3.3,0.8
			c7.5,0.2,14.9-3.4,18.6-9.1c-0.5,15.8-11.3,30-24,41.2c-3,2.6-6.1,5.1-9.2,7.6c-0.9,1.9-1.8,3.7-2.8,5.5c0.9,0.7,1.9,1.2,2.9,1.7
			c5.2,2.1,11.5,1.1,16.5-1.4c5-2.5,8.8-6.4,12.6-10.1c4.1-4.1,8.3-8.3,12.4-12.4c-2,2.2-3.8,4.6-5.5,7c-1,1.5-2,3.1-1.9,4.8
			c0.1,3.4,4.4,5.8,8.4,5.8c4,0,7.6-1.6,11.2-3.1c10.9-4.4,22.8-7.1,34.8-7.9c-9.6,3.3-18.7,7.6-27.1,12.8
			c-5.9,3.7-12.1,9.4-9.8,15.4c9.6-2.7,18.4-7.3,27-11.8c-11.6,13.4-31.4,21.1-50.7,19.8c-12-0.8-23.5-4.9-35.4-6.6
			c-1.7-0.2-3.5-0.4-5.2-0.5c-6.1,6.7-13.1,12.7-20.2,18.6c-1.8,1.5-3.7,3-5.6,4.5c0.9,3.3,2.7,6.4,5.8,8.3c6,3.6,14.2,1.2,20.9-1.2
			c7.3-2.6,14.6-5.2,21.9-7.9c-10.2,4.8-20.6,9.8-28.4,17.2c-6.4,6-10.9,14-11,22.1c-1.3-1.6-3.4-2.7-5.6-3
			c-4.6-0.5-8.9,1.9-12.4,4.4c-5.9,4.2-10.8,9.4-14.5,15.2c0-0.2,0.1-0.3,0.1-0.5c0.5-5.7,0-17.2-5.2-20.8
			c-3.9-2.7-8.9-5.2-15.8,3.2c-3.6,3.8-6.9,7.7-10.4,11.6c-2.1,2.3-3.7,4.9-5.6,7.4c-0.3,0-0.6,0-0.8,0c-2.4-3-4.6-6-7.1-8.9
			c-3.5-4-7-7.9-10.8-11.7c-4.3-4.2-8.9-8.2-13.4-12.2c-2.7-2.3-5.7-4.5-8.5-6.7c-1.4-1.1-2.9-2.2-4.3-3.2c-1.6,1-3,2.1-4.1,3.3
			c-5.2,5.7-7.3,13.2-12.1,19.2c3-5.6,6.1-11.6,5.4-17.8c-0.7-6.2-6.9-12.4-14-11.5c-4.2,0.5-7.5,3.2-10.3,5.9
			c-4.3,4.2-8.1,8.8-11.2,13.8c2.1-4.5,2.9-9.5-0.4-13.2c-4.7-5.3-13.5-3.7-20.2-0.4c-10.2,5-14.8,0.3-21.5,1.6
			c15-3.4,27.7-13.1,34.5-25.1l-11.1-16.8c3.2,0.2,6.4,0.8,9,2.4c2.8,1.7,4.5,4.1,5.4,6.9c1.4-4.1,2.1-8.3,2-12.5
			c-2.8-4.1-5-8.4-6.5-13c-0.6-1.8-1-3.6-1.4-5.5c-2.7,0.4-5.5,1.3-8.2,2c-4,1.1-8.5,1.4-12.7,1.1
			C367.2,378.7,380.5,384.7,376,397.2z"/>
		<g>
			<path fill="#FFFFFF" d="M373.6,396.5c-0.3,0.7-1.6,0.9-2.6,1c-1.9,0.2-3.8,0-5.7-0.1c-4.3-0.2-8.3-0.3-12.2,1.9
				c-4.6,2.6-8.5,6.4-13,9.1c-4.2,2.5-8.9,3.5-13.7,2.6c-4.9-0.9-10-3.3-13-7.4c-1.1,1.1-2.3,2.3-3.4,3.4c4,3,9.3,3,14,2
				c4.3-0.9,8.6-2.8,11.9-5.7c6.5-5.7,7.7-16.1,0.5-21.8c-6.2-5-15.6-4.6-21.1-10.6c-4.9-5.3-4.6-13.5-0.9-19.3
				c5.3-8.1,15.4-12,24.5-14c-0.6-1.5-1.3-3-1.9-4.6c-5.7,3.3-11.6,6.8-15.6,12.1c-3.7,4.8-5.6,11.2-3.1,17c2.2,5,7,8.2,12,10
				c6.5,2.3,13.6,1.8,20.3,0.6c1.5-0.3,2.4-2.4,1.5-3.7c-7.8-11.2,4.1-23.9,8.9-33.7c2.8-5.7,4.1-11.7,3.2-18c-1-6.7-4-13-7.1-18.9
				c-1.3,1-2.6,2-3.9,3c4.3,5.4,12.9,6.6,19.1,4.5c7.1-2.4,11.8-8.6,14.3-15.3c3-8.2,2.4-17.2,5.5-25.3c2.4-6.4,6.9-11.8,12-16.2
				c6.4-5.5,14.2-9.3,22.3-11.7c-0.6-1.5-1.3-3-1.9-4.6c-5.9,3-11.4,6.7-16.4,11c-4.8,4.2-9.5,9-12.7,14.6
				c-3.1,5.4-4.7,12.2-1.8,18.1c2.8,5.7,9.4,7.2,15.2,6.2c7.2-1.3,12.1-6.7,16.5-12.1c-1.4-0.6-2.8-1.2-4.3-1.8
				c-0.5,11.8-12.2,19.8-20,27.1c-8.5,8-14.8,17.6-16.3,29.4c-0.8,6.4-0.5,13.5,2.9,19.2c0.9,1.5,3.5,1.8,4.3,0
				c2.9-6.6,7.4-12.4,12.9-17.2c1.5-1.3,0.6-3.6-1.1-4.2c-0.1,0-0.3-0.1-0.4-0.1c0.6,0.8,1.2,1.6,1.8,2.4
				c-1.1-13.3,13-21.4,23.1-26.6c6-3.1,12-6,17.7-9.7c5.4-3.5,10.4-7.6,15-12.1c5-4.9,9.4-10.5,13.1-16.4c-1.4,0-2.9,0-4.3,0
				c2.4,4.9,0.6,10.3-1,15.1c-1.7,4.9-4.4,10.8-3.6,16.1c1,6.4,9.2,6.3,14.1,5.3c5.7-1.2,10.8-4.7,15-8.6c4.9-4.6,9-10.1,14.7-13.8
				c-1.2-0.9-2.4-1.9-3.7-2.8c-2.8,9-9.7,15.9-16.1,22.5c-7.2,7.6-13.7,15.2-17.6,25.1c-0.4,1,0.3,2.3,1.1,2.8
				c5.8,3.3,10.7,7.9,14.9,13.1c0.5,0.6,1.7,0.9,2.4,0.6c2-0.6,2.7-2.3,4-3.8c1.5-1.7,3.2-3.2,5-4.6c3.3-2.8,6.8-5.1,10.7-7
				c3.8-1.9,7.7-3.6,11.4-5.8c3.7-2.2,7.1-4.7,10.7-7c7.5-4.8,15.3-8,24.2-9.1c9.4-1.1,18.9-1.1,28.3-3.2c9.6-2.2,18.8-6.2,27-11.7
				c-1.2-0.5-2.4-1-3.7-1.5c3.2,10.1-9,16.8-16.5,20.1c-3.4,1.5-10,3.2-9.5,8.2c0.2,2.8,2.9,3.6,5.2,3.9c2.7,0.3,5.4,0.5,8.1,0.4
				c10.4-0.3,20.6-3.5,29-9.5c7.3-5.1,13.1-11.8,18.3-19c5.9-8,11-16.6,17.2-24.3c-1.4-0.4-2.8-0.7-4.2-1.1
				c3.7,8.9,1.9,18.6-2.9,26.7c-5,8.5-12.9,15-21.1,20.2c-8,5.1-16.9,8.7-24.7,14.2c-3.3,2.3-6.4,5.1-8.5,8.6
				c-1.9,3.3-3.5,8.4-1.3,11.9c2.8,4.5,10.6,2.9,14.7,1.5c5-1.6,9.3-4.7,12.3-9c-1.6-0.4-3.1-0.8-4.7-1.3
				c-0.4,10.3-5.4,19.8-11.9,27.7c-3.4,4.2-7.3,8.1-11.4,11.7c-2.3,2-4.6,4-7,5.9c-1.4,1.1-2.4,1.8-3.2,3.5
				c-0.7,1.5-1.4,2.9-2.2,4.3c-0.7,1.3-0.2,2.6,0.9,3.4c7.6,5.4,18,3.3,25.2-1.7c3.8-2.6,7.1-5.8,10.3-9.1c4-4,7.9-7.9,11.9-11.9
				c-1.2-1.2-2.4-2.4-3.5-3.5c-2.3,2.7-4.7,5.5-6.5,8.5c-1.5,2.4-2.2,5.3-0.9,8c2.8,5.6,10.3,6.1,15.6,4.6c3.3-0.9,6.4-2.4,9.5-3.6
				c3.3-1.2,6.6-2.2,9.9-3.1c6.9-1.8,14-3,21.1-3.5c-0.2-1.6-0.4-3.3-0.7-4.9c-9.2,3.2-18,7.2-26.3,12.2
				c-6.3,3.8-15.3,10.5-12.4,19.1c0.4,1.3,1.7,2.1,3.1,1.7c9.7-2.8,18.7-7.4,27.6-12.1c-1-1.3-2-2.6-3-3.9
				c-10.3,11.8-25.8,18.3-41.3,19.1c-9,0.4-17.7-1.4-26.3-3.4c-4.6-1.1-9.3-2.2-14-2.9c-2.1-0.3-4.2-0.6-6.3-0.8
				c-1.1-0.1-2.2-0.3-3.2,0.4c-0.9,0.7-1.7,1.8-2.5,2.6c-7.2,7.5-15.3,14.3-23.5,20.7c-0.7,0.5-0.9,1.7-0.6,2.4
				c1.2,4.2,3.7,8.1,7.7,10.2c4.2,2.1,8.9,2,13.4,1.2c4.9-0.9,9.5-2.8,14.1-4.5c5.5-2,11-3.9,16.4-5.9c-0.6-1.5-1.3-3-1.9-4.6
				c-17.1,8.1-40.2,19.5-40.7,41.5c1.4-0.6,2.8-1.2,4.3-1.8c-5.6-6.2-14.3-3.6-20.3,0.5c-6.4,4.4-11.9,10.1-16.2,16.6
				c1.6,0.4,3.1,0.8,4.7,1.3c0.5-4,0.2-8.4-0.5-12.3c-0.7-4-2.2-8.3-5.6-10.9c-2.6-2-5.8-3.4-9.2-3c-5.4,0.6-8.9,5.3-12.3,9
				c-2.5,2.8-5,5.7-7.5,8.5c-2.4,2.7-4.3,5.6-6.4,8.4c0.7-0.4,1.4-0.8,2.2-1.2c-0.3,0-0.6,0-0.8,0c0.6,0.2,1.2,0.5,1.8,0.7
				c-6.4-8.2-13.1-16.1-20.7-23.2c-7.6-7.1-15.7-13.6-24-19.8c-0.7-0.5-1.8-0.4-2.5,0c-8.7,5.5-11.1,15.7-17.1,23.5
				c1.4,0.8,2.9,1.7,4.3,2.5c3.2-6,6.7-12.7,5.7-19.8c-0.8-5.5-4.9-10.4-10.1-12.4c-6.1-2.4-12.1,0.2-16.8,4.3
				c-5.2,4.5-9.6,10.1-13.3,15.8c1.4,0.8,2.9,1.7,4.3,2.5c2.5-5.4,3.4-12-1.2-16.6c-3.9-3.9-9.7-4.3-14.8-3.3
				c-5.6,1.1-10.3,4.8-16.1,4.9c-4.4,0-8.5-1.5-12.9-0.7c0.4,1.6,0.9,3.2,1.3,4.8c14.9-3.4,28.3-12.9,36-26.3c0.4-0.7,0.5-1.8,0-2.5
				c-3.7-5.6-7.4-11.2-11.1-16.8c-0.7,1.3-1.4,2.5-2.2,3.8c5.2,0.4,10.1,2.2,12.1,7.4c0.8,2.3,4,2.4,4.8,0c0.9-2.8,1.5-5.6,1.9-8.5
				c0.2-1.4,0.3-2.9,0.2-4.3c-0.1-1.5-1-2.5-1.7-3.7c-3.1-4.9-5-10.1-6.2-15.8c-0.3-1.4-1.8-2-3.1-1.7c-3.3,0.5-6.5,1.7-9.8,2.4
				c-3.4,0.7-7,0.9-10.5,0.6c-2.4-0.2-3.5,3.6-1.3,4.7c2.1,1,3.7,2.2,5.2,3.8C374.4,388,375.1,392.2,373.6,396.5
				c-1.1,3,3.8,4.4,4.8,1.3c2-5.7,0.9-11.4-3-16c-1.8-2.2-4.3-4.2-6.9-5.4c-0.4,1.6-0.8,3.1-1.3,4.7c3.7,0.3,7.5,0.1,11.1-0.7
				c3.5-0.7,6.9-2,10.4-2.6c-1-0.6-2.1-1.2-3.1-1.7c1.2,5.3,2.9,10.3,5.6,15c0.6,1.1,1.5,2.1,2,3.3c0.4,0.8,0.1,2.2,0,3.2
				c-0.3,2.8-0.9,5.5-1.8,8.2c1.6,0,3.2,0,4.8,0c-1.2-3.2-3-5.9-5.9-7.9c-3.2-2.2-7.2-2.9-11-3.2c-1.9-0.1-3.2,2.2-2.2,3.8
				c3.7,5.6,7.4,11.2,11.1,16.8c0-0.8,0-1.7,0-2.5c-7,12.3-19.3,20.8-33,24c-3.2,0.7-1.8,5.4,1.3,4.8c3.5-0.6,7.2,0.7,10.7,0.8
				c2.2,0.1,4.5-0.2,6.6-0.8c2.5-0.7,4.7-2,7.1-2.9c3.8-1.4,8.5-2.6,12.4-0.9c5,2.3,4.5,7.8,2.6,12.1c-1.3,2.9,2.6,5.3,4.3,2.5
				c3.1-4.8,6.7-9.3,10.8-13.3c3.4-3.3,7.7-6.4,12.6-4.9c4,1.2,7.1,5.1,7.5,9.3c0.5,5.7-2.5,11.1-5.1,15.9c-1.6,2.9,2.4,5,4.3,2.5
				c5.3-7,7.6-16.8,15.3-21.7c-0.8,0-1.7,0-2.5,0c8,6,15.7,12.2,23,19c7.3,6.8,13.8,14.3,19.9,22.2c0.7,1,1.3,1.7,2.6,1.8
				c1,0.1,1.9-0.1,2.6-0.7c0.8-0.7,1.3-1.8,1.9-2.7c0.8-1.1,1.5-2.2,2.3-3.2c3.2-4,6.8-7.8,10.2-11.6c2.2-2.4,4.7-6.1,8.3-6.6
				c2.1-0.2,4.3,0.9,5.8,2.2c2.4,1.9,3.2,5.7,3.6,8.5c0.6,3.4,0.7,7.1,0.3,10.6c-0.3,2.7,3.4,3.1,4.7,1.3c3.5-5.3,7.8-9.9,12.9-13.7
				c4.2-3.1,11.3-7.4,15.7-2.4c1.5,1.7,4.2,0.3,4.3-1.8c0.2-9.2,6.2-17.1,13-22.7c7.5-6.1,16.5-10.3,25.2-14.4
				c2.5-1.2,0.7-5.5-1.9-4.6c-4.7,1.7-9.4,3.4-14,5c-4.3,1.5-8.6,3.3-13,4.5c-3.6,1-7.7,1.8-11.4,0.8c-3.9-1.1-6.1-4.1-7.2-7.8
				c-0.2,0.8-0.4,1.6-0.6,2.4c9.1-7.1,18-14.6,25.8-23.2c-0.6,0.2-1.2,0.5-1.8,0.7c14.3,0.8,27.8,6.5,42.1,7.2
				c12.2,0.6,24.7-2.4,35.5-8.3c5.8-3.2,11.1-7.3,15.5-12.3c1.9-2.1-0.5-5.3-3-3.9c-8.5,4.5-17.1,8.9-26.4,11.6
				c1,0.6,2.1,1.2,3.1,1.7c-1.1-3.1,0.7-5.8,2.9-8c2.7-2.8,6.1-4.8,9.5-6.7c7.3-4.2,14.9-7.6,22.9-10.4c2.5-0.9,2.3-5.1-0.7-4.9
				c-12,0.8-23.9,3.4-35.2,7.8c-4.5,1.8-10.4,4.9-15,2c-2-1.3-1.9-2.8-0.8-4.7c1.6-2.7,3.7-5.2,5.7-7.5c2.1-2.4-1.2-5.8-3.5-3.5
				c-3.4,3.4-6.9,6.9-10.3,10.3c-3,3-6,6.2-9.4,8.8c-6.1,4.7-14.9,7.6-21.7,2.8c0.3,1.1,0.6,2.3,0.9,3.4c0.8-1.4,1.4-2.9,2.2-4.3
				c0.8-1.5,2.2-2.3,3.5-3.4c2.5-2,4.9-4,7.3-6.2c4.2-3.8,8.1-7.9,11.5-12.4c6.6-8.5,11.4-18.5,11.8-29.4c0.1-2.6-3.3-3.2-4.7-1.3
				c-2.3,3.4-5.9,5.7-9.8,6.9c-2,0.6-4,0.9-6.1,0.9c-0.7,0-2,0.1-2.5-0.4c-0.5-0.6-0.3-2-0.2-2.7c1.1-7.3,9.3-11.8,15.1-15
				c15.7-8.7,33.2-17.2,41.8-34c4.5-8.8,6.1-19.2,2.2-28.5c-0.6-1.5-2.9-2.7-4.2-1.1c-10.3,12.8-17.8,28.2-30.3,39.2
				c-6.9,6.1-15.2,10-24.3,11.5c-2.4,0.4-4.7,0.6-7.1,0.6c-1.3,0-2.6,0-3.9-0.1c-0.7,0-1.3-0.1-2-0.2c-0.5,0-2.6-0.7-1.9,0.5
				c0.2,0.3-0.3,0.1,0.1,0c0.3-0.1,0.8-0.7,1-0.9c0.9-0.6,2-1,3-1.4c2.3-1,4.6-2,6.9-3.1c8.6-4.4,18.2-13.1,14.8-23.8
				c-0.5-1.4-2.3-2.4-3.7-1.5c-7.3,4.9-15.4,8.5-23.9,10.7c-9,2.3-18.2,2.4-27.4,3.4c-9.2,1-17.6,3.6-25.5,8.3
				c-3.5,2.1-6.8,4.4-10.2,6.6c-3.6,2.4-7.3,4.3-11.2,6.1c-4.2,2-8.4,4.2-12.1,7.1c-2,1.5-3.9,3.1-5.7,4.8c-0.9,0.8-1.8,1.7-2.6,2.6
				c-0.3,0.3-0.5,0.6-0.8,0.9c-0.3,0.3-0.5,0.7-0.8,1c-0.5,0.6-0.5,0.7,0.1,0.1c0.8,0.2,1.6,0.4,2.4,0.6c-4.5-5.5-9.8-10.3-16-13.9
				c0.4,0.9,0.8,1.9,1.1,2.8c3.8-9.7,10.8-17.1,17.9-24.6c6.4-6.8,12.9-14,15.8-23c0.6-2-1.9-4-3.7-2.8
				c-9.1,5.9-14.6,16.4-24.8,20.7c-2.4,1-4.9,1.6-7.5,1.5c-1,0-2.7,0-3.5-0.7c-0.8-0.7-0.6-1.9-0.5-2.8c0.5-5,2.8-9.7,4.3-14.5
				c1.7-5.5,2.3-11.1-0.3-16.5c-0.9-1.8-3.4-1.5-4.3,0c-6.8,10.9-16.1,20.1-26.9,27.1c-11.4,7.4-25.4,11.5-34.9,21.6
				c-4.8,5-8.4,11.6-7.8,18.7c0.1,1.2,0.7,2.1,1.8,2.4c0.1,0,0.3,0.1,0.4,0.1c-0.4-1.4-0.7-2.8-1.1-4.2c-5.7,5-10.6,11.2-13.6,18.2
				c1.4,0,2.9,0,4.3,0c-2.8-4.8-2.9-11-2.2-16.3c0.7-5.3,2.6-10.4,5.3-15c6-10,16.5-16,23.7-25c3.9-4.9,6.9-10.4,7.2-16.8
				c0.1-2-2.9-3.5-4.3-1.8c-3.1,3.9-6.5,8.3-11.4,10.1c-4.1,1.5-10,1.5-12.2-2.9c-2.5-4.8-0.2-10.5,2.5-14.7
				c2.9-4.5,6.8-8.5,10.9-12c4.7-4.1,10-7.6,15.6-10.5c2.5-1.3,0.8-5.4-1.9-4.6c-13.5,4-26.5,12-34.1,24.1
				c-4.2,6.7-5.6,14.1-6.7,21.9c-1,7.2-2.7,14.7-8.4,19.7c-5.1,4.5-14.5,5.5-19.1-0.3c-1.8-2.3-5.2,0.6-3.9,3
				c3.1,5.9,6.3,12.3,6.7,19c0.4,6.3-2,11.8-5.2,17.2c-5.9,10.1-14.5,22.9-6.5,34.4c0.5-1.2,1-2.4,1.5-3.7c-5.5,1-11.2,1.4-16.6-0.2
				c-3.9-1.2-8.2-3.6-9.9-7.6c-1.9-4.6,0.6-9.8,3.7-13.2c3.7-4,8.4-6.7,13.1-9.4c2.5-1.5,0.8-5.2-1.9-4.6
				c-14.8,3.3-33.3,13.5-30.7,31.4c1.2,8,6.9,13.2,14.2,16c6.2,2.3,17,4.4,15.2,13.4c-0.9,4.5-4.8,7.5-8.8,9.2
				c-4.5,1.9-10.7,3-14.9-0.1c-2-1.5-4.9,1.5-3.4,3.4c6.4,8.5,18.9,12.6,29,8.7c5.7-2.2,10.1-6.4,15.1-9.8c1.9-1.3,3.9-2.6,6.2-2.8
				c2.2-0.2,4.6,0,6.8,0.1c4.6,0.3,10.1,0.4,12.2-4.6c0.5-1.3-0.6-2.7-1.7-3.1C375.2,394.3,374.1,395.3,373.6,396.5z"/>
		</g>
	</g>
</g>
</svg>
